# xmcd CD database file
#
# Track frame offsets:
#	150
#	19135
#	39732
#	59580
#	76377
#	88147
#	108830
#	129075
#	148057
#	170822
#	192905
#	208042
#	228242
#	252427
#
# Disc length: 3664 seconds
#
# Revision: 12
# Processed by: cddbd v1.5.2PL0 Copyright (c) Steve Scherf et al.
# Submitted via: CDex 1.70beta2
#
DISCID=c50e4e0e
DTITLE=國府田マリ子 - My Best Friend 3
DYEAR=2004
DGENRE=seiyu
TTITLE0=寂しがりやの恋
TTITLE1=ハチミツ
TTITLE2=世界中のポスト
TTITLE3=心の矢印
TTITLE4=トマト
TTITLE5=もんしろちょう
TTITLE6=その時まで
TTITLE7=Lifelike -It's now or never
TTITLE8=花
TTITLE9=空の手のひら
TTITLE10=Ta・ra・ra
TTITLE11=地球の想い
TTITLE12=Horizon 2003
TTITLE13=羽根
EXTD=YEAR: 2004
EXTT0=
EXTT1=
EXTT2=
EXTT3=
EXTT4=
EXTT5=
EXTT6=
EXTT7=
EXTT8=
EXTT9=
EXTT10=
EXTT11=
EXTT12=
EXTT13=
PLAYORDER=
